<svg width="14" height="14" viewBox="0 0 14 14" fill="none" xmlns="http://www.w3.org/2000/svg">
<path fill-rule="evenodd" clip-rule="evenodd" d="M6.59645 0.26001C5.86211 0.26001 5.2668 0.855313 5.2668 1.58966V2.25432H5.26658L5.26588 2.25432L5.26518 2.25432L1.94293 2.25432C1.20859 2.25432 0.613281 2.84962 0.613281 3.58397V12.2267C0.613281 12.961 1.20859 13.5563 1.94293 13.5563L7.92635 13.5563C8.6607 13.5563 9.256 12.961 9.256 12.2267V11.562L12.5799 11.562C13.3142 11.562 13.9095 10.9667 13.9095 10.2324V4.27505C13.9099 4.26639 13.91 4.25769 13.91 4.24896C13.91 4.24022 13.9099 4.23152 13.9095 4.22287V3.85951C13.9095 3.50687 13.7694 3.16866 13.5201 2.91931L11.2502 0.649455C11.0009 0.400097 10.6627 0.26001 10.31 0.26001H9.92108H6.59645ZM9.25625 1.58966L6.59645 1.58966L6.59645 2.64351L6.5967 2.64376L8.86656 4.91361C9.11591 5.16297 9.256 5.50117 9.256 5.85382V10.2324H12.5799V4.91378L10.5859 4.91378C9.85156 4.91378 9.25625 4.31848 9.25625 3.58413V1.58966ZM12.3045 3.58413L10.5859 3.58413L10.5859 1.86554L12.3045 3.58413ZM1.94293 3.58397L4.60105 3.58397L4.60106 5.57844C4.60106 6.31278 5.19636 6.90809 5.9307 6.90809L7.92635 6.90809V10.8787L7.9261 10.8972L7.92635 10.9157V12.2267L1.94293 12.2267L1.94293 3.58397ZM5.9307 5.57844L7.65097 5.57844L5.9307 3.85817L5.9307 5.57844Z" fill="white"/>
</svg>
