<svg width="14" height="13" viewBox="0 0 14 13" fill="none" xmlns="http://www.w3.org/2000/svg">
<path fill-rule="evenodd" clip-rule="evenodd" d="M1.81563 0.829712C1.06961 0.829712 0.464844 1.43448 0.464844 2.18049V2.85579V2.85588V11.6359C0.464844 12.3819 1.06961 12.9866 1.81563 12.9866L12.6219 12.9866C13.3679 12.9866 13.9727 12.3819 13.9727 11.6359L13.9727 3.53118C13.9727 2.78516 13.3679 2.1804 12.6219 2.1804L7.49841 2.1804L6.54336 1.22535C6.29004 0.972025 5.94646 0.829712 5.58821 0.829712H1.81563ZM7.20734 3.53118C7.21495 3.53131 7.22256 3.53131 7.23016 3.53118L12.6219 3.53118L12.6219 11.6359L1.81563 11.6359L1.81563 3.53118H7.20734ZM9.72401 5.75517C9.98776 6.01892 9.98776 6.44656 9.72401 6.71031L7.02244 9.41188C6.75869 9.67563 6.33105 9.67563 6.0673 9.41188L4.71652 8.0611C4.45276 7.79734 4.45276 7.36971 4.71652 7.10595C4.98027 6.84219 5.40791 6.84219 5.67166 7.10595L6.54487 7.97916L8.76886 5.75517C9.03262 5.49141 9.46025 5.49141 9.72401 5.75517Z" fill="white"/>
</svg>
